<svg width="218" height="24" viewBox="0 0 218 24" fill="none" xmlns="http://www.w3.org/2000/svg">
<circle cx="12" cy="12" r="12" fill="url(#paint0_linear_0_8)"/>
<circle cx="12" cy="12" r="7" stroke="black" stroke-width="2"/>
<path d="M30.952 17V7.2H37.35V8.642H32.744V11.33H36.93V12.73H32.744V15.558H37.35V17H30.952ZM39.8718 20.08L41.4818 16.538H41.0618L38.3598 10.056H40.3058L42.2518 14.942L44.2818 10.056H46.1858L41.7758 20.08H39.8718ZM50.1297 17.168C49.4297 17.168 48.809 17.0187 48.2677 16.72C47.7264 16.4213 47.3017 16.0013 46.9937 15.46C46.6857 14.9187 46.5317 14.2933 46.5317 13.584C46.5317 12.8653 46.681 12.226 46.9797 11.666C47.2877 11.106 47.7077 10.672 48.2397 10.364C48.781 10.0467 49.4157 9.888 50.1437 9.888C50.825 9.888 51.427 10.0373 51.9497 10.336C52.4724 10.6347 52.8784 11.0453 53.1677 11.568C53.4664 12.0813 53.6157 12.6553 53.6157 13.29C53.6157 13.3927 53.611 13.5 53.6017 13.612C53.6017 13.724 53.597 13.8407 53.5877 13.962H48.3097C48.347 14.5033 48.5337 14.928 48.8697 15.236C49.215 15.544 49.6304 15.698 50.1157 15.698C50.4797 15.698 50.783 15.6187 51.0257 15.46C51.2777 15.292 51.4644 15.0773 51.5857 14.816H53.4057C53.275 15.2547 53.0557 15.656 52.7477 16.02C52.449 16.3747 52.0757 16.6547 51.6277 16.86C51.189 17.0653 50.6897 17.168 50.1297 17.168ZM50.1437 11.344C49.705 11.344 49.3177 11.47 48.9817 11.722C48.6457 11.9647 48.431 12.338 48.3377 12.842H51.7957C51.7677 12.3847 51.5997 12.0207 51.2917 11.75C50.9837 11.4793 50.601 11.344 50.1437 11.344ZM56.7255 17L54.1775 10.056H56.0535L57.8175 15.306L59.5815 10.056H61.4575L58.8955 17H56.7255ZM63.5537 8.978C63.2271 8.978 62.9564 8.88 62.7417 8.684C62.5364 8.488 62.4337 8.24067 62.4337 7.942C62.4337 7.64333 62.5364 7.40067 62.7417 7.214C62.9564 7.018 63.2271 6.92 63.5537 6.92C63.8804 6.92 64.1464 7.018 64.3517 7.214C64.5664 7.40067 64.6737 7.64333 64.6737 7.942C64.6737 8.24067 64.5664 8.488 64.3517 8.684C64.1464 8.88 63.8804 8.978 63.5537 8.978ZM62.6577 17V10.056H64.4497V17H62.6577ZM66.3202 17V10.056H67.9022L68.0422 11.232C68.2568 10.8213 68.5648 10.4947 68.9662 10.252C69.3768 10.0093 69.8575 9.888 70.4082 9.888C71.2668 9.888 71.9342 10.1587 72.4102 10.7C72.8862 11.2413 73.1242 12.0347 73.1242 13.08V17H71.3322V13.248C71.3322 12.6507 71.2108 12.1933 70.9682 11.876C70.7255 11.5587 70.3475 11.4 69.8342 11.4C69.3302 11.4 68.9148 11.5773 68.5882 11.932C68.2708 12.2867 68.1122 12.7813 68.1122 13.416V17H66.3202ZM74.8377 17V10.056H76.4197L76.5597 11.232C76.7744 10.8213 77.0824 10.4947 77.4837 10.252C77.8944 10.0093 78.3751 9.888 78.9257 9.888C79.7844 9.888 80.4517 10.1587 80.9277 10.7C81.4037 11.2413 81.6417 12.0347 81.6417 13.08V17H79.8497V13.248C79.8497 12.6507 79.7284 12.1933 79.4857 11.876C79.2431 11.5587 78.8651 11.4 78.3517 11.4C77.8477 11.4 77.4324 11.5773 77.1057 11.932C76.7884 12.2867 76.6297 12.7813 76.6297 13.416V17H74.8377ZM91.3253 17.168C90.3453 17.168 89.4866 16.9533 88.7493 16.524C88.0213 16.0947 87.4473 15.502 87.0273 14.746C86.6166 13.9807 86.4113 13.0987 86.4113 12.1C86.4113 11.1013 86.6166 10.224 87.0273 9.468C87.4473 8.70267 88.0213 8.10533 88.7493 7.676C89.4866 7.24667 90.3453 7.032 91.3253 7.032C92.2959 7.032 93.1499 7.24667 93.8873 7.676C94.6246 8.10533 95.1986 8.70267 95.6093 9.468C96.0199 10.224 96.2253 11.1013 96.2253 12.1C96.2253 13.0987 96.0199 13.9807 95.6093 14.746C95.1986 15.502 94.6246 16.0947 93.8873 16.524C93.1499 16.9533 92.2959 17.168 91.3253 17.168ZM91.3253 15.558C92.2586 15.558 93.0006 15.25 93.5513 14.634C94.1113 14.018 94.3913 13.1733 94.3913 12.1C94.3913 11.0267 94.1113 10.182 93.5513 9.566C93.0006 8.95 92.2586 8.642 91.3253 8.642C90.3919 8.642 89.6453 8.95 89.0853 9.566C88.5253 10.182 88.2453 11.0267 88.2453 12.1C88.2453 13.1733 88.5253 14.018 89.0853 14.634C89.6453 15.25 90.3919 15.558 91.3253 15.558ZM97.7655 20.08V10.056H99.3615L99.5575 11.05C99.7815 10.742 100.075 10.4713 100.439 10.238C100.813 10.0047 101.293 9.888 101.881 9.888C102.535 9.888 103.118 10.0467 103.631 10.364C104.145 10.6813 104.551 11.1153 104.849 11.666C105.148 12.2167 105.297 12.842 105.297 13.542C105.297 14.242 105.148 14.8673 104.849 15.418C104.551 15.9593 104.145 16.3887 103.631 16.706C103.118 17.014 102.535 17.168 101.881 17.168C101.359 17.168 100.901 17.07 100.509 16.874C100.117 16.678 99.8001 16.4027 99.5575 16.048V20.08H97.7655ZM101.503 15.6C102.073 15.6 102.544 15.4087 102.917 15.026C103.291 14.6433 103.477 14.1487 103.477 13.542C103.477 12.9353 103.291 12.436 102.917 12.044C102.544 11.652 102.073 11.456 101.503 11.456C100.925 11.456 100.449 11.652 100.075 12.044C99.7115 12.4267 99.5295 12.9213 99.5295 13.528C99.5295 14.1347 99.7115 14.634 100.075 15.026C100.449 15.4087 100.925 15.6 101.503 15.6ZM110.272 17.168C109.572 17.168 108.952 17.0187 108.41 16.72C107.869 16.4213 107.444 16.0013 107.136 15.46C106.828 14.9187 106.674 14.2933 106.674 13.584C106.674 12.8653 106.824 12.226 107.122 11.666C107.43 11.106 107.85 10.672 108.382 10.364C108.924 10.0467 109.558 9.888 110.286 9.888C110.968 9.888 111.57 10.0373 112.092 10.336C112.615 10.6347 113.021 11.0453 113.31 11.568C113.609 12.0813 113.758 12.6553 113.758 13.29C113.758 13.3927 113.754 13.5 113.744 13.612C113.744 13.724 113.74 13.8407 113.73 13.962H108.452C108.49 14.5033 108.676 14.928 109.012 15.236C109.358 15.544 109.773 15.698 110.258 15.698C110.622 15.698 110.926 15.6187 111.168 15.46C111.42 15.292 111.607 15.0773 111.728 14.816H113.548C113.418 15.2547 113.198 15.656 112.89 16.02C112.592 16.3747 112.218 16.6547 111.77 16.86C111.332 17.0653 110.832 17.168 110.272 17.168ZM110.286 11.344C109.848 11.344 109.46 11.47 109.124 11.722C108.788 11.9647 108.574 12.338 108.48 12.842H111.938C111.91 12.3847 111.742 12.0207 111.434 11.75C111.126 11.4793 110.744 11.344 110.286 11.344ZM115.265 17V10.056H116.847L116.987 11.232C117.202 10.8213 117.51 10.4947 117.911 10.252C118.322 10.0093 118.803 9.888 119.353 9.888C120.212 9.888 120.879 10.1587 121.355 10.7C121.831 11.2413 122.069 12.0347 122.069 13.08V17H120.277V13.248C120.277 12.6507 120.156 12.1933 119.913 11.876C119.671 11.5587 119.293 11.4 118.779 11.4C118.275 11.4 117.86 11.5773 117.533 11.932C117.216 12.2867 117.057 12.7813 117.057 13.416V17H115.265ZM130.507 17.168C129.788 17.168 129.154 17.0467 128.603 16.804C128.052 16.552 127.618 16.1973 127.301 15.74C126.984 15.2733 126.82 14.7087 126.811 14.046H128.701C128.72 14.5033 128.883 14.8907 129.191 15.208C129.508 15.516 129.942 15.67 130.493 15.67C130.969 15.67 131.347 15.558 131.627 15.334C131.907 15.1007 132.047 14.7927 132.047 14.41C132.047 14.0087 131.921 13.696 131.669 13.472C131.426 13.248 131.1 13.066 130.689 12.926C130.278 12.786 129.84 12.6367 129.373 12.478C128.617 12.2167 128.038 11.8807 127.637 11.47C127.245 11.0593 127.049 10.5133 127.049 9.832C127.04 9.25333 127.175 8.75867 127.455 8.348C127.744 7.928 128.136 7.606 128.631 7.382C129.126 7.14867 129.695 7.032 130.339 7.032C130.992 7.032 131.566 7.14867 132.061 7.382C132.565 7.61533 132.957 7.942 133.237 8.362C133.526 8.782 133.68 9.28133 133.699 9.86H131.781C131.772 9.51467 131.636 9.21133 131.375 8.95C131.123 8.67933 130.768 8.544 130.311 8.544C129.919 8.53467 129.588 8.63267 129.317 8.838C129.056 9.034 128.925 9.32333 128.925 9.706C128.925 10.0327 129.028 10.294 129.233 10.49C129.438 10.6767 129.718 10.8353 130.073 10.966C130.428 11.0967 130.834 11.2367 131.291 11.386C131.776 11.554 132.22 11.75 132.621 11.974C133.022 12.198 133.344 12.4967 133.587 12.87C133.83 13.234 133.951 13.7053 133.951 14.284C133.951 14.7973 133.82 15.2733 133.559 15.712C133.298 16.1507 132.91 16.5053 132.397 16.776C131.884 17.0373 131.254 17.168 130.507 17.168ZM138.805 17.168C138.133 17.168 137.526 17.014 136.985 16.706C136.453 16.398 136.028 15.9733 135.711 15.432C135.403 14.8813 135.249 14.2467 135.249 13.528C135.249 12.8093 135.407 12.1793 135.725 11.638C136.042 11.0873 136.467 10.658 136.999 10.35C137.54 10.042 138.147 9.888 138.819 9.888C139.481 9.888 140.079 10.042 140.611 10.35C141.152 10.658 141.577 11.0873 141.885 11.638C142.202 12.1793 142.361 12.8093 142.361 13.528C142.361 14.2467 142.202 14.8813 141.885 15.432C141.577 15.9733 141.152 16.398 140.611 16.706C140.069 17.014 139.467 17.168 138.805 17.168ZM138.805 15.614C139.271 15.614 139.677 15.4413 140.023 15.096C140.368 14.7413 140.541 14.2187 140.541 13.528C140.541 12.8373 140.368 12.3193 140.023 11.974C139.677 11.6193 139.276 11.442 138.819 11.442C138.343 11.442 137.932 11.6193 137.587 11.974C137.251 12.3193 137.083 12.8373 137.083 13.528C137.083 14.2187 137.251 14.7413 137.587 15.096C137.932 15.4413 138.338 15.614 138.805 15.614ZM146.567 17.168C145.699 17.168 145.027 16.8973 144.551 16.356C144.084 15.8147 143.851 15.0213 143.851 13.976V10.056H145.629V13.808C145.629 14.4053 145.75 14.8627 145.993 15.18C146.235 15.4973 146.618 15.656 147.141 15.656C147.635 15.656 148.041 15.4787 148.359 15.124C148.685 14.7693 148.849 14.2747 148.849 13.64V10.056H150.641V17H149.059L148.919 15.824C148.704 16.2347 148.391 16.5613 147.981 16.804C147.579 17.0467 147.108 17.168 146.567 17.168ZM152.48 17V10.056H154.076L154.244 11.358C154.496 10.91 154.837 10.5553 155.266 10.294C155.705 10.0233 156.218 9.888 156.806 9.888V11.778H156.302C155.91 11.778 155.56 11.8387 155.252 11.96C154.944 12.0813 154.702 12.2913 154.524 12.59C154.356 12.8887 154.272 13.304 154.272 13.836V17H152.48ZM161.31 17.168C160.601 17.168 159.975 17.014 159.434 16.706C158.893 16.398 158.463 15.9687 158.146 15.418C157.838 14.8673 157.684 14.2373 157.684 13.528C157.684 12.8187 157.838 12.1887 158.146 11.638C158.463 11.0873 158.893 10.658 159.434 10.35C159.975 10.042 160.601 9.888 161.31 9.888C162.197 9.888 162.943 10.1213 163.55 10.588C164.157 11.0453 164.544 11.68 164.712 12.492H162.822C162.729 12.156 162.542 11.8947 162.262 11.708C161.991 11.512 161.669 11.414 161.296 11.414C160.801 11.414 160.381 11.6007 160.036 11.974C159.691 12.3473 159.518 12.8653 159.518 13.528C159.518 14.1907 159.691 14.7087 160.036 15.082C160.381 15.4553 160.801 15.642 161.296 15.642C161.669 15.642 161.991 15.5487 162.262 15.362C162.542 15.1753 162.729 14.9093 162.822 14.564H164.712C164.544 15.348 164.157 15.978 163.55 16.454C162.943 16.93 162.197 17.168 161.31 17.168ZM169.677 17.168C168.977 17.168 168.356 17.0187 167.815 16.72C167.273 16.4213 166.849 16.0013 166.541 15.46C166.233 14.9187 166.079 14.2933 166.079 13.584C166.079 12.8653 166.228 12.226 166.527 11.666C166.835 11.106 167.255 10.672 167.787 10.364C168.328 10.0467 168.963 9.888 169.691 9.888C170.372 9.888 170.974 10.0373 171.497 10.336C172.019 10.6347 172.425 11.0453 172.715 11.568C173.013 12.0813 173.163 12.6553 173.163 13.29C173.163 13.3927 173.158 13.5 173.149 13.612C173.149 13.724 173.144 13.8407 173.135 13.962H167.857C167.894 14.5033 168.081 14.928 168.417 15.236C168.762 15.544 169.177 15.698 169.663 15.698C170.027 15.698 170.33 15.6187 170.573 15.46C170.825 15.292 171.011 15.0773 171.133 14.816H172.953C172.822 15.2547 172.603 15.656 172.295 16.02C171.996 16.3747 171.623 16.6547 171.175 16.86C170.736 17.0653 170.237 17.168 169.677 17.168ZM169.691 11.344C169.252 11.344 168.865 11.47 168.529 11.722C168.193 11.9647 167.978 12.338 167.885 12.842H171.343C171.315 12.3847 171.147 12.0207 170.839 11.75C170.531 11.4793 170.148 11.344 169.691 11.344ZM182.486 17.168C181.496 17.168 180.647 16.958 179.938 16.538C179.228 16.1087 178.682 15.516 178.3 14.76C177.917 13.9947 177.726 13.1127 177.726 12.114C177.726 11.1153 177.917 10.2333 178.3 9.468C178.682 8.70267 179.228 8.10533 179.938 7.676C180.647 7.24667 181.496 7.032 182.486 7.032C183.662 7.032 184.623 7.326 185.37 7.914C186.126 8.49267 186.597 9.30933 186.784 10.364H184.81C184.688 9.832 184.427 9.41667 184.026 9.118C183.634 8.81 183.111 8.656 182.458 8.656C181.552 8.656 180.843 8.964 180.33 9.58C179.816 10.196 179.56 11.0407 179.56 12.114C179.56 13.1873 179.816 14.032 180.33 14.648C180.843 15.2547 181.552 15.558 182.458 15.558C183.111 15.558 183.634 15.418 184.026 15.138C184.427 14.8487 184.688 14.452 184.81 13.948H186.784C186.597 14.956 186.126 15.7447 185.37 16.314C184.623 16.8833 183.662 17.168 182.486 17.168ZM188.328 17V6.92H190.12V17H188.328ZM195.283 17.168C194.611 17.168 194.004 17.014 193.463 16.706C192.931 16.398 192.506 15.9733 192.189 15.432C191.881 14.8813 191.727 14.2467 191.727 13.528C191.727 12.8093 191.886 12.1793 192.203 11.638C192.52 11.0873 192.945 10.658 193.477 10.35C194.018 10.042 194.625 9.888 195.297 9.888C195.96 9.888 196.557 10.042 197.089 10.35C197.63 10.658 198.055 11.0873 198.363 11.638C198.68 12.1793 198.839 12.8093 198.839 13.528C198.839 14.2467 198.68 14.8813 198.363 15.432C198.055 15.9733 197.63 16.398 197.089 16.706C196.548 17.014 195.946 17.168 195.283 17.168ZM195.283 15.614C195.75 15.614 196.156 15.4413 196.501 15.096C196.846 14.7413 197.019 14.2187 197.019 13.528C197.019 12.8373 196.846 12.3193 196.501 11.974C196.156 11.6193 195.754 11.442 195.297 11.442C194.821 11.442 194.41 11.6193 194.065 11.974C193.729 12.3193 193.561 12.8373 193.561 13.528C193.561 14.2187 193.729 14.7413 194.065 15.096C194.41 15.4413 194.816 15.614 195.283 15.614ZM203.045 17.168C202.177 17.168 201.505 16.8973 201.029 16.356C200.563 15.8147 200.329 15.0213 200.329 13.976V10.056H202.107V13.808C202.107 14.4053 202.229 14.8627 202.471 15.18C202.714 15.4973 203.097 15.656 203.619 15.656C204.114 15.656 204.52 15.4787 204.837 15.124C205.164 14.7693 205.327 14.2747 205.327 13.64V10.056H207.119V17H205.537L205.397 15.824C205.183 16.2347 204.87 16.5613 204.459 16.804C204.058 17.0467 203.587 17.168 203.045 17.168ZM212.151 17.168C211.497 17.168 210.914 17.0093 210.401 16.692C209.887 16.3747 209.481 15.9407 209.183 15.39C208.884 14.8393 208.735 14.214 208.735 13.514C208.735 12.814 208.884 12.1933 209.183 11.652C209.481 11.1013 209.887 10.672 210.401 10.364C210.914 10.0467 211.497 9.888 212.151 9.888C212.673 9.888 213.131 9.986 213.523 10.182C213.915 10.378 214.232 10.6533 214.475 11.008V6.92H216.267V17H214.671L214.475 16.006C214.251 16.314 213.952 16.5847 213.579 16.818C213.215 17.0513 212.739 17.168 212.151 17.168ZM212.529 15.6C213.107 15.6 213.579 15.4087 213.943 15.026C214.316 14.634 214.503 14.1347 214.503 13.528C214.503 12.9213 214.316 12.4267 213.943 12.044C213.579 11.652 213.107 11.456 212.529 11.456C211.959 11.456 211.488 11.6473 211.115 12.03C210.741 12.4127 210.555 12.9073 210.555 13.514C210.555 14.1207 210.741 14.62 211.115 15.012C211.488 15.404 211.959 15.6 212.529 15.6Z" fill="white"/>
<defs>
<linearGradient id="paint0_linear_0_8" x1="12" y1="0" x2="12" y2="24" gradientUnits="userSpaceOnUse">
<stop stop-color="#C183FF"/>
<stop offset="1" stop-color="#4DC9FF"/>
</linearGradient>
</defs>
</svg>
